<svg width="128" height="98" viewBox="0 0 128 98" fill="none" xmlns="http://www.w3.org/2000/svg">
<path d="M21.4468 72.2837C21.9764 72.0567 22.279 71.7541 22.3546 71.3759C22.3546 71.0733 22.2033 70.6572 21.9007 70.1277C19.1017 70.5816 16.4539 71.4515 13.9574 72.7376C11.461 74.0236 8.96454 75.3475 6.46809 76.7092C6.61939 76.4823 6.73286 76.2553 6.80851 76.0284C6.95981 75.8014 7.11111 75.6123 7.26241 75.461C9.07801 73.948 10.9314 72.4728 12.8227 71.0355C14.7139 69.5981 16.7565 68.3499 18.9504 67.2908C19.8582 66.9125 20.5768 66.383 21.1064 65.7021C21.6359 65.0969 21.9007 64.227 21.9007 63.0922C21.9007 62.1087 21.9385 61.1253 22.0142 60.1418C22.1655 59.1584 22.1655 58.1371 22.0142 57.078C21.8629 57.3806 21.7116 57.721 21.5603 58.0993C21.409 58.4019 21.2577 58.7423 21.1064 59.1206C20.8038 56.1702 21.1064 53.3333 22.0142 50.6099C22.922 47.8109 23.6407 44.9362 24.1702 41.9858C20.9929 44.104 18.1182 46.487 15.5461 49.1348C12.974 51.7825 9.91017 53.8251 6.35461 55.2624C6.27896 54.1277 6.50591 53.2199 7.03546 52.539C7.56501 51.9338 8.13239 51.2908 8.73759 50.6099C8.51064 50.4586 8.28369 50.2695 8.05674 50.0426C7.75414 49.8913 7.52719 49.7021 7.37589 49.4752C6.54374 48.5674 6.12766 47.6596 6.12766 46.7518C6.20331 45.844 6.80851 45.0118 7.94326 44.2553C9.83452 43.1206 11.5745 41.7589 13.1631 40.1702C14.6761 38.5816 16.2648 37.0686 17.9291 35.6312C18.7612 34.9504 19.5934 34.2317 20.4255 33.4752C21.2577 32.7187 21.9007 31.773 22.3546 30.6383C22.3546 30.5626 22.3546 30.4492 22.3546 30.2979C22.3546 30.2222 22.3546 29.9953 22.3546 29.617C21.1442 30.8274 19.9716 31.9622 18.8369 33.0213C17.7021 34.156 16.5296 35.2908 15.3191 36.4255C14.3357 35.7447 13.5035 35.669 12.8227 36.1986C12.2175 36.8038 11.461 37.2577 10.5532 37.5603C10.8558 37.182 11.1206 36.8038 11.3475 36.4255C11.6501 36.0473 11.9527 35.7069 12.2553 35.4043C13.617 33.9669 14.9787 32.5296 16.3404 31.0922C17.6265 29.7305 18.9882 28.3688 20.4255 27.0071C23.7541 23.9054 27.1206 20.8416 30.5248 17.8156C33.8534 14.8652 37.2199 11.8392 40.6241 8.73759C41.2293 8.20804 41.7967 7.64066 42.3262 7.03546C42.9314 6.35461 43.4988 5.74941 44.0284 5.21986C44.7849 4.53901 45.5035 3.85816 46.1844 3.1773C46.8652 2.49645 47.5839 1.8156 48.3404 1.13475C49.2482 0.378251 50.2317 0 51.2908 0C52.3499 0 53.409 0.264775 54.4681 0.794326C54.4681 1.85343 54.2411 2.76123 53.7872 3.51773C53.3333 4.27423 52.7281 4.95508 51.9716 5.56028C50.2317 6.99764 48.7943 8.39716 47.6596 9.75887C46.6005 11.0449 45.7305 12.4444 45.0496 13.9574C45.3522 13.8061 45.6548 13.6927 45.9574 13.617C46.1844 13.4657 46.4113 13.3522 46.6383 13.2766C47.3948 12.6714 48.1891 12.0662 49.0213 11.461C49.7778 10.9314 50.5343 10.3641 51.2908 9.75887C52.5012 8.85106 53.2955 8.43499 53.6738 8.51064C54.052 8.58629 54.8463 9.19149 56.0567 10.3262C55.7541 10.7801 55.4515 11.2719 55.1489 11.8014C54.8463 12.2553 54.5059 12.7849 54.1277 13.3901C54.3546 13.6927 54.6194 14.0331 54.922 14.4113C55.2246 14.7139 55.565 15.0922 55.9433 15.5461C55.792 15.773 55.6407 16.0378 55.4894 16.3404C55.3381 16.643 55.1489 16.9078 54.922 17.1348C50.7612 20.766 47.4704 24.8511 45.0496 29.3901C42.5532 34.0047 40.435 38.8463 38.695 43.9149C37.7872 46.4113 36.9551 48.9078 36.1986 51.4043C35.4421 53.9764 34.6478 56.5106 33.8156 59.0071C33.8156 59.1584 33.7778 59.3475 33.7021 59.5745C33.7021 59.7258 33.6643 59.9527 33.5887 60.2553C34.7234 59.9527 35.7825 59.6879 36.766 59.461C37.7494 59.1584 38.7329 58.8558 39.7163 58.5532C40.4728 58.4019 41.2671 58.2128 42.0993 57.9858C42.9314 57.7589 43.7258 57.5319 44.4823 57.305C46.3735 56.7754 48.227 56.6241 50.0426 56.8511C51.7825 57.0024 53.5225 57.5697 55.2624 58.5532C55.6407 59.6123 55.3759 60.4066 54.4681 60.9362C53.6359 61.5414 53.182 62.2979 53.1064 63.2057C53.7116 63.2813 54.279 63.357 54.8085 63.4326C55.3381 63.5083 55.8676 63.5839 56.3972 63.6596C57.5319 63.8865 58.3641 64.3026 58.8936 64.9078C59.3475 65.513 59.6123 66.383 59.6879 67.5177C59.6879 68.2742 59.6879 69.0307 59.6879 69.7872C59.6879 70.0898 59.6879 70.3924 59.6879 70.695C59.7636 71.1489 59.7636 71.6407 59.6879 72.1702C59.6123 72.6998 59.4988 73.2293 59.3475 73.7589C59.1962 74.2884 58.9693 74.6667 58.6667 74.8936C56.9267 76.1797 55.1489 77.4279 53.3333 78.6383C51.5177 79.773 49.513 80.4917 47.3191 80.7943C47.0922 80.87 46.8652 80.9078 46.6383 80.9078C46.4113 80.9078 46.1844 80.9078 45.9574 80.9078C45.7305 80.9078 45.5414 80.9078 45.3901 80.9078C45.1631 80.8322 44.9362 80.7943 44.7092 80.7943C44.8605 80.3404 45.0118 79.9243 45.1631 79.5461C45.2388 79.0922 45.3901 78.5626 45.617 77.9574C44.7849 78.1844 44.0284 78.3735 43.3475 78.5248C42.591 78.7518 41.9102 78.9787 41.305 79.2057C38.9598 80.1891 36.6147 81.1726 34.2695 82.156C31.9243 83.0638 29.5792 84.0851 27.234 85.2199C23.9811 86.8085 20.766 88.4728 17.5887 90.2128C14.4113 91.8771 11.1962 93.5414 7.94326 95.2057C7.18676 95.5839 6.43026 95.9622 5.67376 96.3404C4.91726 96.643 4.16076 96.9456 3.40426 97.2482C2.95035 97.3995 2.49645 97.4752 2.04255 97.4752C1.513 97.5508 0.832151 97.6643 0 97.8156C0.832151 96.3026 1.58865 94.8652 2.2695 93.5035C2.95035 92.2175 3.66903 90.8936 4.42553 89.5319C3.21513 88.9267 2.4208 88.0946 2.04255 87.0355C1.6643 85.9764 1.73995 84.7281 2.2695 83.2908C2.2695 83.2908 2.23168 83.3286 2.15603 83.4043C5.33333 81.3617 8.47281 79.3948 11.5745 77.5035C14.7518 75.5366 18.0426 73.7967 21.4468 72.2837ZM32.4539 68.1986C34.4965 67.5934 36.539 66.9504 38.5816 66.2695C40.6241 65.6643 42.6288 65.0213 44.5957 64.3404C45.2009 64.1135 45.5414 63.7352 45.617 63.2057C45.7683 62.7518 45.8061 62.1466 45.7305 61.3901C43.6123 62.0709 41.4941 62.6761 39.3759 63.2057C37.2577 63.8109 35.2151 64.5674 33.2482 65.4752C32.9456 65.6265 32.6809 65.9291 32.4539 66.383C32.227 66.7612 32 67.1017 31.773 67.4043C31.9243 67.5556 32.0378 67.7069 32.1135 67.8582C32.1891 68.0095 32.3026 68.1229 32.4539 68.1986ZM27.461 43.5745C27.9149 42.5154 28.3688 41.4184 28.8227 40.2837C29.2009 39.1489 29.6548 37.9007 30.1844 36.539C30.3357 38.052 30.2222 39.2624 29.844 40.1702C29.5414 41.078 28.747 42.2128 27.461 43.5745ZM32.7943 21.1064C32.4161 21.5603 32 22.0142 31.5461 22.4681C31.1678 22.922 30.7896 23.3381 30.4113 23.7163C30.4113 23.792 30.4492 23.8676 30.5248 23.9433C30.6005 24.0189 30.6761 24.0946 30.7518 24.1702C31.2057 23.792 31.6596 23.3759 32.1135 22.922C32.5674 22.5437 33.0213 22.1655 33.4752 21.7872C33.3995 21.6359 33.2861 21.5225 33.1348 21.4468C33.0591 21.2955 32.9456 21.182 32.7943 21.1064ZM27.6879 26.6667C27.9905 26.3641 28.2931 26.0993 28.5957 25.8723C28.8983 25.5697 29.2009 25.305 29.5035 25.078C29.4279 25.0024 29.3522 24.9267 29.2766 24.8511C29.2766 24.7754 29.2388 24.6998 29.1631 24.6241C28.8605 24.9267 28.5579 25.1915 28.2553 25.4184C27.9527 25.721 27.6501 26.0236 27.3475 26.3262C27.4232 26.3262 27.461 26.3641 27.461 26.4397C27.5366 26.5154 27.6123 26.591 27.6879 26.6667ZM52.9929 61.3901C53.1442 61.1631 53.2577 60.8983 53.3333 60.5957C53.4846 60.3688 53.5981 60.104 53.6738 59.8014C53.5981 59.8014 53.5225 59.7636 53.4468 59.6879C53.3712 59.6123 53.2955 59.5745 53.2199 59.5745C53.0686 59.8014 52.9173 60.0662 52.766 60.3688C52.6903 60.5957 52.5768 60.8227 52.4255 61.0496C52.5012 61.1253 52.5768 61.2009 52.6525 61.2766C52.8038 61.2766 52.9173 61.3144 52.9929 61.3901Z" fill="black"/>
<path d="M73.5319 46.2979C73.9858 45.4657 74.1749 44.6336 74.0993 43.8014C74.0236 42.9693 73.7589 42.1371 73.305 41.305C73.2293 41.1537 73.1915 41.0402 73.1915 40.9645C73.1158 40.8132 73.0402 40.6619 72.9645 40.5106C71.6785 38.6194 71.3002 36.8038 71.8298 35.0638C72.2837 33.3239 73.0402 31.6596 74.0993 30.0709C74.1749 29.9196 74.2884 29.7683 74.4397 29.617C74.5154 29.4657 74.591 29.3901 74.6667 29.3901C76.8605 28.2553 78.6761 26.7423 80.1135 24.8511C81.5508 22.8842 83.253 21.2577 85.2199 19.9716C85.4468 19.8203 85.6738 19.669 85.9007 19.5177C86.1277 19.2908 86.3924 19.1395 86.695 19.0638C86.4681 19.3664 86.279 19.6312 86.1277 19.8582C85.9007 20.1608 85.6738 20.4634 85.4468 20.766C85.5225 20.766 85.5603 20.8038 85.5603 20.8794C85.5603 20.8794 85.5981 20.9173 85.6738 20.9929C85.9007 20.8416 86.1277 20.7281 86.3546 20.6525C86.5816 20.5012 86.8085 20.3499 87.0355 20.1986C90.4397 17.1726 94.1087 14.6005 98.0426 12.4823C101.976 10.3641 106.137 8.73759 110.525 7.60284C111.66 7.30024 112.492 6.92199 113.021 6.46809C113.551 5.93853 114.08 5.14421 114.61 4.08511C112.038 4.16076 109.617 4.53901 107.348 5.21986C105.002 5.82506 102.695 6.61939 100.426 7.60284C101.787 6.54374 103.262 5.71158 104.851 5.10638C106.364 4.42553 107.953 3.82033 109.617 3.29078C111.281 2.76123 112.908 2.38298 114.496 2.15603C114.875 2.08038 115.253 2.04255 115.631 2.04255C116.917 2.04255 118.241 2.38298 119.603 3.06383C119.603 3.51773 119.603 3.97163 119.603 4.42553C119.603 4.87943 119.603 5.40898 119.603 6.01418C120.132 6.08983 120.624 6.16548 121.078 6.24113C121.532 6.24113 121.986 6.27896 122.44 6.35461C123.499 6.58156 124.293 6.99764 124.823 7.60284C125.428 8.28369 125.768 9.11584 125.844 10.0993C125.844 10.8558 125.882 11.6123 125.957 12.3688C126.033 13.0496 126.033 13.7683 125.957 14.5248C125.882 15.357 125.768 16.1891 125.617 17.0213C125.466 17.8534 125.201 18.6099 124.823 19.2908C123.915 20.9551 123.007 22.6194 122.099 24.2837C121.116 25.8723 120.057 27.4232 118.922 28.9362C115.518 33.7021 112.076 38.4303 108.596 43.1206C105.116 47.8109 101.636 52.539 98.156 57.305C97.3239 58.3641 96.5296 59.461 95.773 60.5957C95.0165 61.7305 94.26 62.8652 93.5035 64C93.2766 64.3783 93.0496 64.7943 92.8227 65.2482C92.5957 65.7021 92.331 66.156 92.0284 66.6099C94.0709 66.383 96.0378 66.1182 97.9291 65.8156C99.8203 65.513 101.712 65.2861 103.603 65.1348C105.267 64.9835 106.894 64.87 108.482 64.7943C110.147 64.7187 111.811 64.643 113.475 64.5674C114.459 64.5674 115.404 64.4917 116.312 64.3404C117.22 64.1891 118.165 63.9243 119.149 63.5461C120.586 63.0165 122.061 62.9031 123.574 63.2057C125.012 63.4326 126.449 64.0757 127.887 65.1348C127.887 66.2695 127.887 67.4799 127.887 68.766C127.887 69.9764 127.887 71.2246 127.887 72.5106C127.962 72.5863 128 72.6619 128 72.7376C127.924 73.721 127.546 74.2506 126.865 74.3262C126.109 74.4019 125.466 74.6288 124.936 75.0071C124.936 75.0827 124.898 75.1584 124.823 75.234C124.823 75.3097 124.861 75.3853 124.936 75.461C125.844 76.8227 126.222 77.7305 126.071 78.1844C125.92 78.7139 125.125 79.3191 123.688 80C123.612 80 123.574 80.0378 123.574 80.1135C123.499 80.1135 123.461 80.1135 123.461 80.1135C122.856 80.2648 122.251 80.4917 121.645 80.7943C121.04 81.1726 120.473 81.0591 119.943 80.4539C119.641 80.1513 119.527 79.6974 119.603 79.0922C119.603 78.487 119.603 77.8061 119.603 77.0496C119.073 76.974 118.544 76.8983 118.014 76.8227C117.409 76.6714 116.804 76.5957 116.199 76.5957C112.567 76.5957 108.974 76.8983 105.418 77.5035C101.939 78.1844 98.4586 79.0544 94.9787 80.1135C93.3901 80.5674 91.8392 81.0591 90.3262 81.5887C88.7376 82.1182 87.2246 82.6478 85.7872 83.1773C85.3333 85.5981 84.8416 86.9976 84.3121 87.3759C83.7069 87.7541 82.4208 87.565 80.4539 86.8085C79.8487 87.2624 79.2813 87.6785 78.7518 88.0567C78.1466 88.435 77.5035 88.8889 76.8227 89.4184C77.3522 89.7967 77.8818 90.1749 78.4113 90.5532C78.8652 90.9314 79.3948 91.3097 80 91.6879C79.0165 92.2931 78.0331 92.8227 77.0496 93.2766C76.1418 93.8061 75.1962 94.2979 74.2128 94.7518C73.7589 94.9031 73.2293 94.9787 72.6241 94.9787C72.0946 94.9787 71.565 94.9409 71.0355 94.8652C69.9764 94.7896 69.2577 94.4492 68.8794 93.844C68.5768 93.3144 68.5768 92.5201 68.8794 91.461C69.2577 90.3262 69.6359 89.2293 70.0142 88.1702C70.4681 87.0355 70.8842 85.9385 71.2624 84.8794C71.4137 84.5768 71.5272 84.2364 71.6028 83.8582C71.6785 83.5556 71.792 83.253 71.9433 82.9504C71.0355 80.9078 70.0898 78.9031 69.1064 76.9362C68.1229 74.9693 67.2151 73.0024 66.383 71.0355C66.156 70.3546 66.0426 69.6359 66.0426 68.8794C66.0426 68.8038 66.0426 68.766 66.0426 68.766C66.0426 67.9338 66.1939 67.1773 66.4965 66.4965C67.026 64.9835 67.6312 63.5083 68.3121 62.0709C69.0686 60.6336 69.7872 59.1962 70.4681 57.7589C70.5437 57.4563 70.695 57.1915 70.922 56.9645C71.1489 56.6619 71.3759 56.5106 71.6028 56.5106C72.5863 56.3593 73.3428 55.9433 73.8723 55.2624C74.3262 54.5059 74.818 53.7872 75.3475 53.1064C76.7849 51.3664 78.1844 49.5887 79.5461 47.773C80.9835 45.9574 82.383 44.1418 83.7447 42.3262C83.8203 42.4019 83.9338 42.4775 84.0851 42.5532C84.1608 42.6288 84.2364 42.7045 84.3121 42.7801C84.0851 43.234 83.8582 43.7258 83.6312 44.2553C83.4043 44.7092 83.1773 45.2009 82.9504 45.7305C83.026 45.8061 83.1017 45.844 83.1773 45.844C83.253 45.9196 83.3286 45.9953 83.4043 46.0709C84.9929 44.1797 86.5437 42.2884 88.0567 40.3972C89.6454 38.4303 91.234 36.539 92.8227 34.7234C94.4113 32.8322 96.0378 30.9787 97.7021 29.1631C99.3664 27.3475 100.955 25.4563 102.468 23.4894C102.165 23.6407 101.863 23.792 101.56 23.9433C101.333 24.0189 101.069 24.1702 100.766 24.3972C97.4374 26.3641 94.2222 28.5579 91.1206 30.9787C88.0946 33.3239 85.2955 36.0473 82.7234 39.1489C82.2695 39.6785 81.8534 40.3215 81.4752 41.078C81.0969 41.7589 80.7187 42.4397 80.3404 43.1206C80.0378 43.6501 79.773 44.2553 79.5461 44.9362C79.3191 45.5414 78.7518 45.844 77.844 45.844C77.7683 45.844 77.6927 45.9196 77.617 46.0709C77.4657 46.2222 77.3901 46.3357 77.3901 46.4113C76.7092 47.3948 76.1797 48 75.8014 48.227C75.4232 48.4539 74.4397 48.7565 72.8511 49.1348C73.0024 48.5296 73.078 48 73.078 47.5461C73.1537 47.0922 73.305 46.6761 73.5319 46.2979ZM121.532 73.5319C120.397 73.3806 119.225 73.3806 118.014 73.5319C116.879 73.7589 115.783 73.5319 114.723 72.8511C115.858 73.0024 116.993 72.9267 118.128 72.6241C119.338 72.3972 120.473 72.6998 121.532 73.5319Z" fill="black"/>
</svg>